<svg width="32" height="32" viewBox="0 0 32 32" fill="none" xmlns="http://www.w3.org/2000/svg">
<rect width="32" height="32" rx="5" fill="#ECB200"/>
<path d="M22.9985 20.9999H23.001V16.2315C23.001 13.898 22.4983 12.1029 19.7713 12.1029C18.4611 12.1029 17.58 12.8214 17.222 13.5045H17.1839V12.3212H14.5991V20.9999H17.2906V16.7012C17.2906 15.5687 17.5039 14.4744 18.9054 14.4744C20.2867 14.4744 20.307 15.7668 20.307 16.7723V20.9999H22.9985Z" fill="white"/>
<path d="M10.2129 12.3214H12.9094V21.0001H10.2129V12.3214Z" fill="white"/>
<path d="M11.5616 8C10.6983 8 10 8.69825 10 9.56155C10 10.4248 10.6983 11.1383 11.5616 11.1383C12.4248 11.1383 13.1231 10.4223 13.1231 9.56155C13.1206 8.69825 12.4223 8 11.5616 8Z" fill="white"/>
</svg>
