<svg width="32" height="32" viewBox="0 0 32 32" fill="none" xmlns="http://www.w3.org/2000/svg">
<rect width="32" height="32" rx="5" fill="#ECB200"/>
<path d="M16.5014 12.1614C14.658 12.1614 13.165 13.6543 13.165 15.4977C13.165 17.3411 14.658 18.834 16.5014 18.834C18.3447 18.834 19.8377 17.3411 19.8377 15.4977C19.8377 13.6543 18.3422 12.1614 16.5014 12.1614ZM16.5014 17.6635C15.3055 17.6635 14.3355 16.6936 14.3355 15.4977C14.3355 14.3018 15.3055 13.3319 16.5014 13.3319C17.6973 13.3319 18.6672 14.3018 18.6672 15.4977C18.6672 16.6936 17.6973 17.6635 16.5014 17.6635Z" fill="white"/>
<path d="M19.1803 9.04095C17.9844 8.98509 15.0213 8.98763 13.8254 9.04095C12.7717 9.08919 11.8449 9.34564 11.0959 10.0921C9.84669 11.3439 10.0066 13.0273 10.0066 15.4978C10.0066 18.0267 9.867 19.672 11.0959 20.9034C12.3502 22.1577 14.059 21.9927 16.5016 21.9927C19.0051 21.9927 19.8709 21.9952 20.757 21.6525C21.9605 21.1853 22.8695 20.1087 22.9584 18.1765C23.0142 16.9806 23.0117 14.0175 22.9584 12.8216C22.8517 10.539 21.6254 9.15267 19.1803 9.04095ZM21.0719 20.0757C20.2517 20.8958 19.1142 20.8222 16.4838 20.8222C13.7746 20.8222 12.6904 20.8628 11.8957 20.0681C10.9842 19.1591 11.1492 17.7017 11.1492 15.4902C11.1492 12.4966 10.842 10.3409 13.8457 10.1886C14.5363 10.1632 14.7395 10.1556 16.4762 10.1556L16.5016 10.1708C19.3885 10.1708 21.6533 9.86868 21.7879 12.8724C21.8183 13.5579 21.826 13.7636 21.826 15.4978C21.826 18.174 21.8767 19.2658 21.0719 20.0757Z" fill="white"/>
<path d="M19.9699 12.8087C20.4004 12.8087 20.7494 12.4598 20.7494 12.0293C20.7494 11.5987 20.4004 11.2498 19.9699 11.2498C19.5394 11.2498 19.1904 11.5987 19.1904 12.0293C19.1904 12.4598 19.5394 12.8087 19.9699 12.8087Z" fill="white"/>
</svg>
