<svg width="32" height="32" viewBox="0 0 32 32" fill="none" xmlns="http://www.w3.org/2000/svg">
<rect width="32" height="32" rx="5" fill="#ECB200"/>
<path d="M16.459 9C12.8941 9 11 11.2826 11 13.7734C11 14.9287 11.6449 16.3684 12.6783 16.8254C12.9729 16.9574 12.9348 16.7949 13.1887 15.8275C13.209 15.7463 13.1988 15.6777 13.1328 15.6016C11.6551 13.8928 12.8434 10.3813 16.2482 10.3813C21.174 10.3813 20.2523 17.1961 17.1039 17.1961C16.2914 17.1961 15.6871 16.5588 15.8801 15.7717C16.1111 14.8322 16.5656 13.8242 16.5656 13.1463C16.5656 11.44 14.024 11.6939 14.024 13.9537C14.024 14.652 14.2703 15.1242 14.2703 15.1242C14.2703 15.1242 13.4527 18.425 13.3004 19.042C13.0439 20.0855 13.3359 21.7766 13.3613 21.9238C13.3766 22.0051 13.468 22.0305 13.5162 21.9645C13.5975 21.8578 14.5852 20.4486 14.8619 19.4305C14.9635 19.0598 15.3748 17.5541 15.3748 17.5541C15.6465 18.0467 16.4336 18.458 17.2689 18.458C19.7572 18.458 21.5574 16.2693 21.5574 13.5551C21.5523 10.9475 19.3256 9 16.459 9Z" fill="white"/>
</svg>
