<svg width="32" height="32" viewBox="0 0 32 32" fill="none" xmlns="http://www.w3.org/2000/svg">
<rect width="32" height="32" rx="5" fill="#FFCD00"/>
<path d="M22.9985 20.9998H23.001V16.2314C23.001 13.8979 22.4983 12.1028 19.7713 12.1028C18.4611 12.1028 17.58 12.8213 17.222 13.5044H17.1839V12.3211H14.5991V20.9998H17.2906V16.7011C17.2906 15.5687 17.5039 14.4743 18.9054 14.4743C20.2867 14.4743 20.307 15.7667 20.307 16.7722V20.9998H22.9985Z" fill="white"/>
<path d="M10.2129 12.3215H12.9094V21.0002H10.2129V12.3215Z" fill="white"/>
<path d="M11.5616 8C10.6983 8 10 8.69825 10 9.56155C10 10.4248 10.6983 11.1383 11.5616 11.1383C12.4248 11.1383 13.1231 10.4223 13.1231 9.56155C13.1206 8.69825 12.4223 8 11.5616 8Z" fill="white"/>
</svg>
