<svg width="715" height="109" viewBox="0 0 715 109" fill="none" xmlns="http://www.w3.org/2000/svg">
<path d="M570.361 105.746H556.471C556.471 106.56 556.738 107.373 556.738 108.187H573.032V8.1344H570.628V105.746H570.361Z" fill="#5A1404"/>
<path d="M602.147 40.6716V105.746H587.723V108.187H604.551V44.1965C603.75 43.1119 602.949 41.7562 602.147 40.6716Z" fill="#5A1404"/>
<path d="M652.634 105.746H638.743C638.743 106.56 639.01 107.373 639.01 108.187H655.305V8.1344H652.901V105.746H652.634Z" fill="#5A1404"/>
<path d="M276.526 25.2166H285.074C286.676 25.2166 288.012 25.2166 289.348 25.4877C287.745 23.8609 284.539 22.7763 278.663 22.7763H273.854V45.0101C274.656 44.739 275.457 44.4678 276.259 44.1967V25.2166H276.526Z" fill="#5A1404"/>
<path d="M316.862 29.2838C316.862 41.7564 312.321 50.7042 302.437 57.7539L303.773 60.4654C312.855 54.229 318.999 45.8236 318.999 34.1644C318.999 29.2838 317.93 25.2166 316.06 21.4206C316.595 24.132 316.862 26.5723 316.862 29.2838Z" fill="#5A1404"/>
<path d="M279.464 68.8708C277.861 69.4131 275.991 70.2265 273.854 70.7688V105.746H258.361V108.187H276.258V72.938C277.594 72.3957 279.196 72.1245 280.532 71.5822L279.464 68.8708Z" fill="#5A1404"/>
<path d="M43.5925 22.505C41.7226 21.4204 39.8528 21.1493 37.9829 21.1493C25.161 21.1493 22.4897 37.9602 22.4897 51.7886C22.4897 60.4652 23.5582 69.9553 27.298 76.1916C25.6952 70.7687 25.161 63.9901 25.161 57.2115C25.161 39.0448 29.435 23.0473 43.5925 22.505Z" fill="#5A1404"/>
<path d="M138.956 23.5897H130.942V26.03H138.956V23.5897Z" fill="#5A1404"/>
<path d="M183.297 23.5897H164.599V105.746H149.373V108.187H167.27V26.03H183.297V23.5897Z" fill="#5A1404"/>
<path d="M79.6552 51.7887C79.6552 86.224 63.6278 107.644 37.9839 107.644C36.6483 107.644 35.0456 107.644 33.71 107.373C36.9154 108.458 40.6552 109 44.3949 109C68.9703 109 82.3265 87.8508 82.3265 57.2115C82.3265 44.7389 80.1895 33.8931 75.9155 25.4877C78.3196 33.0797 79.6552 41.7563 79.6552 51.7887Z" fill="#5A1404"/>
<path d="M134.147 105.746H92.4756V108.187H136.551V90.2912H134.147V105.746Z" fill="#5A1404"/>
<path d="M416.497 89.2065L418.634 81.0722L415.695 8.1344H413.024L416.497 89.2065Z" fill="#5A1404"/>
<path d="M110.373 8.1344H107.969V79.9876H110.373V8.1344Z" fill="#5A1404"/>
<path d="M685.223 8.1344V105.746H669.997V108.187H687.894V8.1344H685.223Z" fill="#5A1404"/>
<path d="M345.976 49.6195L343.572 105.746H302.969L304.038 108.187H346.243L348.38 57.2115C347.579 54.5001 346.777 52.0598 345.976 49.6195Z" fill="#5A1404"/>
<path d="M390.319 49.6195C386.045 62.9056 382.305 75.9205 380.702 83.7837L380.168 86.7663H365.476C365.743 87.5797 365.743 88.3931 366.01 89.2066H382.839C384.442 82.1568 387.38 71.0399 391.12 59.3807L390.319 49.6195Z" fill="#5A1404"/>
<path d="M457.1 42.5697L455.497 36.6046L450.421 56.6692H453.36L457.1 42.5697Z" fill="#5A1404"/>
<path d="M495.299 91.9179V83.2413L474.998 8.40546H472.594L495.299 91.9179Z" fill="#5A1404"/>
<path d="M466.448 80.53H444.544L438.133 105.746H402.606V108.187H440.27L446.681 82.9703H467.25L466.448 80.53Z" fill="#5A1404"/>
<path d="M519.874 40.6717V105.746H481.675L482.21 108.187H522.278V44.1966C521.477 43.112 520.675 41.7563 519.874 40.6717Z" fill="#5A1404"/>
<path d="M209.21 79.9874H211.615V66.1591H242.067V48.2635H239.663V63.7188H209.21V79.9874Z" fill="#5A1404"/>
<path d="M245.272 8.40546V23.5895H209.21V37.9602H211.615V26.0298H247.676V8.40546H245.272Z" fill="#5A1404"/>
<path d="M245.272 105.746H193.717V108.187H247.676V90.5623H245.272V105.746Z" fill="#5A1404"/>
<path d="M549.524 50.1616C535.633 25.4875 525.215 12.7437 514.797 1.62677H499.037V101.679H515.866V29.0123C527.352 43.1118 547.921 76.7337 550.325 101.95H566.619V1.89791H549.791V50.1616H549.524Z" fill="#5A1404"/>
<path d="M631.798 50.1616C617.907 25.4875 607.49 12.7437 597.072 1.62677H581.312V101.679H598.14V29.0123C609.627 43.1118 630.195 76.7337 632.599 101.95H648.894V1.89791H632.065V50.1616H631.798Z" fill="#5A1404"/>
<path d="M312.851 29.2836C312.851 13.2861 301.632 1.89801 280.262 1.89801H252.214V101.95H270.112V67.7861C274.386 66.4303 278.125 65.0746 281.598 63.7189L297.358 101.679H318.194L297.358 56.398C307.776 49.8905 312.851 42.0274 312.851 29.2836ZM270.112 18.709H278.66C289.345 18.709 294.954 22.7761 294.954 30.097C294.954 42.5697 280.797 47.1791 270.112 50.4328V18.709Z" fill="#5A1404"/>
<path d="M37.9818 0C13.6736 0 0.317383 21.4204 0.317383 51.7886C0.317383 82.4279 13.6736 103.577 37.9818 103.577C62.5572 103.577 75.9134 82.4279 75.9134 51.7886C75.9134 21.4204 62.5572 0 37.9818 0ZM37.9818 86.495C23.29 86.495 18.7489 70.2264 18.7489 51.7886C18.7489 33.3507 23.29 17.0821 37.9818 17.0821C52.6736 17.0821 57.4818 33.3507 57.4818 51.7886C57.4818 70.2264 52.6736 86.495 37.9818 86.495Z" fill="#5A1404"/>
<path d="M103.962 1.89801H86.0649V101.95H130.14V84.0547H103.962V1.89801Z" fill="#5A1404"/>
<path d="M681.483 1.89801H663.586V101.95H681.483V1.89801Z" fill="#5A1404"/>
<path d="M124.529 1.89801V19.7935H142.961V101.95H160.858V19.7935H179.022V1.89801H124.529Z" fill="#5A1404"/>
<path d="M387.38 1.89801C380.702 18.4378 374.825 33.0796 367.88 59.6517C360.935 32.8085 355.325 18.4378 348.38 1.89801H327.01L322.736 101.95H339.565L342.771 29.5547C349.716 47.7214 356.661 71.0398 359.065 83.2413H376.428C378.832 71.3109 385.777 47.9925 392.723 29.5547L395.928 101.95H412.757L408.483 1.89801H387.38Z" fill="#5A1404"/>
<path d="M441.338 76.7338H469.386L475.797 101.95H493.694L466.982 1.89801H444.276L417.297 101.95H435.194L441.338 76.7338ZM455.496 20.8781L465.646 60.7363H445.612L455.496 20.8781Z" fill="#5A1404"/>
<path d="M187.304 1.89801V101.95H241.263V84.0547H205.201V59.6517H235.654V42.0274H205.201V19.7935H241.263V1.89801H187.304Z" fill="#5A1404"/>
<path d="M707.126 92.189C702.852 92.189 699.379 95.7139 699.379 99.7811C699.379 104.119 702.852 107.373 707.126 107.373C711.4 107.373 714.605 103.848 714.605 99.5099C714.873 95.7139 711.4 92.189 707.126 92.189ZM707.126 106.289C703.653 106.289 700.982 103.577 700.982 99.7811C700.982 96.2562 703.653 93.5447 707.126 93.5447C710.599 93.5447 713.27 96.2562 713.27 99.7811C713.27 103.577 710.599 106.289 707.126 106.289Z" fill="#5A1404"/>
<path d="M710.867 97.8832C710.867 95.9852 709.798 95.1718 707.662 95.1718H704.189V104.391H705.792V100.595H707.127L709.531 104.391H711.134L708.73 100.595C710.066 100.323 710.867 99.5101 710.867 97.8832ZM705.792 96.7986H707.394C708.73 96.7986 709.264 97.0698 709.264 98.1543C709.264 99.5101 708.463 99.5101 707.127 99.5101H705.792V96.7986Z" fill="#5A1404"/>
</svg>
