<svg width="32" height="32" viewBox="0 0 32 32" fill="none" xmlns="http://www.w3.org/2000/svg">
<rect width="32" height="32" rx="5" fill="#FFCD00"/>
<path d="M22.2517 12.9906C22.8515 12.5667 23.3562 12.0332 23.7686 11.4218C23.2178 11.6611 22.6352 11.8226 22.0238 11.9005C22.6525 11.5256 23.1313 10.9373 23.3562 10.2278C22.7708 10.5768 22.1248 10.8219 21.4355 10.9603C20.8818 10.3663 20.0887 10 19.2264 10C17.5508 10 16.2012 11.3612 16.2012 13.0281C16.2012 13.2675 16.2214 13.4982 16.2704 13.7174C13.7556 13.5963 11.5263 12.3879 10.0296 10.5508C9.77001 11.0036 9.61428 11.5227 9.61428 12.0822C9.61428 13.1319 10.1536 14.0606 10.9582 14.597C10.4708 14.5883 9.99496 14.447 9.59121 14.2249V14.2596C9.59121 15.7304 10.641 16.9531 12.0166 17.2329C11.7686 17.2992 11.5004 17.3338 11.2235 17.3338C11.0303 17.3338 10.8342 17.3223 10.6496 17.2819C11.0418 18.4816 12.155 19.3612 13.4787 19.3901C12.4492 20.1947 11.1399 20.682 9.72387 20.682C9.47585 20.682 9.23648 20.6705 9 20.6417C10.341 21.5068 11.9301 22 13.6431 22C18.9899 21.9971 22.4708 17.5415 22.2517 12.9906Z" fill="white"/>
</svg>
