<svg width="32" height="32" viewBox="0 0 32 32" fill="none" xmlns="http://www.w3.org/2000/svg">
<rect width="32" height="32" rx="5" fill="#FFCD00"/>
<path d="M21.225 16.7349C20.9471 16.3833 21.0274 16.2293 21.225 15.918C21.2283 15.9146 23.5149 12.7543 23.7526 11.683C23.8698 11.2913 23.7526 11.0067 23.1868 11.0067H21.312C20.8333 11.0067 20.6157 11.2544 20.4985 11.529C20.4985 11.529 19.5444 13.8122 18.1952 15.2919C17.76 15.7205 17.5591 15.8577 17.3214 15.8577C17.2042 15.8577 17.0234 15.7205 17.0234 15.3288V11.6763C17.0234 11.2076 16.8895 11 16.4945 11H13.5484C13.2504 11 13.0696 11.2176 13.0696 11.4218C13.0696 11.8671 13.7459 11.9675 13.8162 13.2196V15.9314C13.8162 16.5239 13.7091 16.6344 13.468 16.6344C12.8319 16.6344 11.2852 14.3411 10.3679 11.7164C10.1804 11.2076 9.99966 11 9.51758 11H7.64279C7.10713 11 7 11.2477 7 11.5223C7 12.0077 7.63609 14.4315 9.96284 17.6321C11.5129 19.8149 13.6957 21 15.6809 21C16.8728 21 17.0201 20.7355 17.0201 20.2836C17.0201 18.1979 16.913 18.0003 17.5089 18.0003C17.7867 18.0003 18.2621 18.1376 19.377 19.1922C20.6491 20.4409 20.8601 21 21.5731 21H23.4479C23.9836 21 24.2514 20.7355 24.0974 20.22C23.7392 19.1286 21.3321 16.8822 21.225 16.7349Z" fill="white"/>
</svg>
