<svg width="0" height="0" class="hidden">
  <symbol fill="none" xmlns="http://www.w3.org/2000/svg" viewBox="0 0 32 32" id="fb">
    <rect width="32" height="32" rx="5" fill="none"></rect>
    <path d="M18.3143 11.1582H19.5V9.09141C19.2969 9.06348 18.591 9 17.7709 9C16.0596 9 14.8891 10.0766 14.8891 12.0545V13.875H13V16.1855H14.8891V22H17.2047V16.1855H19.0176L19.3045 13.875H17.2047V12.283C17.2021 11.6152 17.3824 11.1582 18.3143 11.1582Z" fill="white"></path>
  </symbol>
  <symbol fill="none" xmlns="http://www.w3.org/2000/svg" viewBox="0 0 32 32" id="in">
    <rect width="32" height="32" rx="5" fill="none"></rect>
    <path d="M22.9985 20.9998H23.001V16.2314C23.001 13.8979 22.4983 12.1028 19.7713 12.1028C18.4611 12.1028 17.58 12.8213 17.222 13.5044H17.1839V12.3211H14.5991V20.9998H17.2906V16.7011C17.2906 15.5687 17.5039 14.4743 18.9054 14.4743C20.2867 14.4743 20.307 15.7667 20.307 16.7722V20.9998H22.9985Z" fill="white"></path>
    <path d="M10.2129 12.3215H12.9094V21.0002H10.2129V12.3215Z" fill="white"></path>
    <path d="M11.5616 8C10.6983 8 10 8.69825 10 9.56155C10 10.4248 10.6983 11.1383 11.5616 11.1383C12.4248 11.1383 13.1231 10.4223 13.1231 9.56155C13.1206 8.69825 12.4223 8 11.5616 8Z" fill="white"></path>
  </symbol>
  <symbol fill="none" xmlns="http://www.w3.org/2000/svg" viewBox="0 0 32 32" id="ins">
    <rect width="32" height="32" rx="5" fill="none"></rect>
    <path d="M16.5014 12.1614C14.658 12.1614 13.165 13.6543 13.165 15.4977C13.165 17.3411 14.658 18.834 16.5014 18.834C18.3447 18.834 19.8377 17.3411 19.8377 15.4977C19.8377 13.6543 18.3422 12.1614 16.5014 12.1614ZM16.5014 17.6635C15.3055 17.6635 14.3355 16.6936 14.3355 15.4977C14.3355 14.3018 15.3055 13.3319 16.5014 13.3319C17.6973 13.3319 18.6672 14.3018 18.6672 15.4977C18.6672 16.6936 17.6973 17.6635 16.5014 17.6635Z" fill="white"></path>
    <path d="M19.1803 9.04095C17.9844 8.98509 15.0213 8.98763 13.8254 9.04095C12.7717 9.08919 11.8449 9.34564 11.0959 10.0921C9.84669 11.3439 10.0066 13.0273 10.0066 15.4978C10.0066 18.0267 9.867 19.672 11.0959 20.9034C12.3502 22.1577 14.059 21.9927 16.5016 21.9927C19.0051 21.9927 19.8709 21.9952 20.757 21.6525C21.9605 21.1853 22.8695 20.1087 22.9584 18.1765C23.0142 16.9806 23.0117 14.0175 22.9584 12.8216C22.8517 10.539 21.6254 9.15267 19.1803 9.04095ZM21.0719 20.0757C20.2517 20.8958 19.1142 20.8222 16.4838 20.8222C13.7746 20.8222 12.6904 20.8628 11.8957 20.0681C10.9842 19.1591 11.1492 17.7017 11.1492 15.4902C11.1492 12.4966 10.842 10.3409 13.8457 10.1886C14.5363 10.1632 14.7395 10.1556 16.4762 10.1556L16.5016 10.1708C19.3885 10.1708 21.6533 9.86868 21.7879 12.8724C21.8183 13.5579 21.826 13.7636 21.826 15.4978C21.826 18.174 21.8767 19.2658 21.0719 20.0757Z" fill="white"></path>
    <path d="M19.9699 12.8087C20.4004 12.8087 20.7494 12.4598 20.7494 12.0293C20.7494 11.5987 20.4004 11.2498 19.9699 11.2498C19.5394 11.2498 19.1904 11.5987 19.1904 12.0293C19.1904 12.4598 19.5394 12.8087 19.9699 12.8087Z" fill="white"></path>
  </symbol>
  <symbol fill="none" xmlns="http://www.w3.org/2000/svg" viewBox="0 0 32 32" id="pint">
    <rect width="32" height="32" rx="5" fill="none"></rect>
    <path d="M16.459 9C12.8941 9 11 11.2826 11 13.7734C11 14.9287 11.6449 16.3684 12.6783 16.8254C12.9729 16.9574 12.9348 16.7949 13.1887 15.8275C13.209 15.7463 13.1988 15.6777 13.1328 15.6016C11.6551 13.8928 12.8434 10.3813 16.2482 10.3813C21.174 10.3813 20.2523 17.1961 17.1039 17.1961C16.2914 17.1961 15.6871 16.5588 15.8801 15.7717C16.1111 14.8322 16.5656 13.8242 16.5656 13.1463C16.5656 11.44 14.024 11.6939 14.024 13.9537C14.024 14.652 14.2703 15.1242 14.2703 15.1242C14.2703 15.1242 13.4527 18.425 13.3004 19.042C13.0439 20.0855 13.3359 21.7766 13.3613 21.9238C13.3766 22.0051 13.468 22.0305 13.5162 21.9645C13.5975 21.8578 14.5852 20.4486 14.8619 19.4305C14.9635 19.0598 15.3748 17.5541 15.3748 17.5541C15.6465 18.0467 16.4336 18.458 17.2689 18.458C19.7572 18.458 21.5574 16.2693 21.5574 13.5551C21.5523 10.9475 19.3256 9 16.459 9Z" fill="white"></path>
  </symbol>
   <symbol fill="none" xmlns="http://www.w3.org/2000/svg" viewBox="0 0 32 32" id="tw">
    <rect width="32" height="32" rx="5" fill="none"></rect>
    <path d="M22.2517 12.9906C22.8515 12.5667 23.3562 12.0332 23.7686 11.4218C23.2178 11.6611 22.6352 11.8226 22.0238 11.9005C22.6525 11.5256 23.1313 10.9373 23.3562 10.2278C22.7708 10.5768 22.1248 10.8219 21.4355 10.9603C20.8818 10.3663 20.0887 10 19.2264 10C17.5508 10 16.2012 11.3612 16.2012 13.0281C16.2012 13.2675 16.2214 13.4982 16.2704 13.7174C13.7556 13.5963 11.5263 12.3879 10.0296 10.5508C9.77001 11.0036 9.61428 11.5227 9.61428 12.0822C9.61428 13.1319 10.1536 14.0606 10.9582 14.597C10.4708 14.5883 9.99496 14.447 9.59121 14.2249V14.2596C9.59121 15.7304 10.641 16.9531 12.0166 17.2329C11.7686 17.2992 11.5004 17.3338 11.2235 17.3338C11.0303 17.3338 10.8342 17.3223 10.6496 17.2819C11.0418 18.4816 12.155 19.3612 13.4787 19.3901C12.4492 20.1947 11.1399 20.682 9.72387 20.682C9.47585 20.682 9.23648 20.6705 9 20.6417C10.341 21.5068 11.9301 22 13.6431 22C18.9899 21.9971 22.4708 17.5415 22.2517 12.9906Z" fill="white"></path>
  </symbol>
  <symbol fill="none" xmlns="http://www.w3.org/2000/svg" viewBox="0 0 32 32" id="vk">
    <rect width="32" height="32" rx="5" fill="none"></rect>
    <path d="M21.225 16.7349C20.9471 16.3833 21.0274 16.2293 21.225 15.918C21.2283 15.9146 23.5149 12.7543 23.7526 11.683C23.8698 11.2913 23.7526 11.0067 23.1868 11.0067H21.312C20.8333 11.0067 20.6157 11.2544 20.4985 11.529C20.4985 11.529 19.5444 13.8122 18.1952 15.2919C17.76 15.7205 17.5591 15.8577 17.3214 15.8577C17.2042 15.8577 17.0234 15.7205 17.0234 15.3288V11.6763C17.0234 11.2076 16.8895 11 16.4945 11H13.5484C13.2504 11 13.0696 11.2176 13.0696 11.4218C13.0696 11.8671 13.7459 11.9675 13.8162 13.2196V15.9314C13.8162 16.5239 13.7091 16.6344 13.468 16.6344C12.8319 16.6344 11.2852 14.3411 10.3679 11.7164C10.1804 11.2076 9.99966 11 9.51758 11H7.64279C7.10713 11 7 11.2477 7 11.5223C7 12.0077 7.63609 14.4315 9.96284 17.6321C11.5129 19.8149 13.6957 21 15.6809 21C16.8728 21 17.0201 20.7355 17.0201 20.2836C17.0201 18.1979 16.913 18.0003 17.5089 18.0003C17.7867 18.0003 18.2621 18.1376 19.377 19.1922C20.6491 20.4409 20.8601 21 21.5731 21H23.4479C23.9836 21 24.2514 20.7355 24.0974 20.22C23.7392 19.1286 21.3321 16.8822 21.225 16.7349Z" fill="white"></path>
  </symbol>
</svg>